<?xml version="1.0" encoding="UTF-8" standalone="no"?>
<!DOCTYPE svg PUBLIC "-//W3C//DTD SVG 1.1//EN" "http://www.w3.org/Graphics/SVG/1.1/DTD/svg11.dtd">
<!-- Created with Vectornator (http://vectornator.io/) -->
<svg height="100.0px" stroke-miterlimit="10" style="fill-rule:nonzero;clip-rule:evenodd;stroke-linecap:round;stroke-linejoin:round;" version="1.1" viewBox="0 0 100 100" width="100.0px" xml:space="preserve" xmlns="http://www.w3.org/2000/svg" xmlns:xlink="http://www.w3.org/1999/xlink">
<defs/>
<g id="Слой-1-скопировать">
<g opacity="1">
<path d="M59.0567 69.0557C59.0593 69.0235 59.0664 68.9771 59.064 69.0255C59.0586 69.1695 58.9888 69.2691 58.8932 69.3261C58.7959 70.2313 58.6006 71.1236 58.3008 71.9861C58.2264 72.199 58.1508 72.4085 58.0641 72.6138C58.0593 72.6329 58.0528 72.6518 58.0482 72.6693C57.7219 73.7729 57.38 74.8704 57.0174 75.963C55.7494 79.792 54.3412 83.572 53.0478 87.394C52.4063 89.2924 51.771 91.193 51.15 93.098C50.8391 94.0553 50.5314 95.0129 50.2269 95.9708C50.0713 96.4608 49.9297 96.9584 49.7615 97.4442C49.5909 97.9394 49.3868 98.4076 49.1394 98.8706C49.0897 98.9622 48.9855 98.986 48.8968 98.9608C48.8367 99.0402 48.6839 99.0439 48.6553 98.9182C48.6159 98.7479 48.5455 98.5783 48.4913 98.41C47.9296 96.6848 47.4011 94.9494 46.9211 93.1985C46.3338 91.056 45.7282 88.9185 45.1144 86.7835C44.4616 84.5106 43.8204 82.2355 43.1908 79.9565C42.6101 77.8518 42.0776 75.7333 41.5466 73.6165C41.3172 72.7006 41.1161 71.7756 40.9148 70.8539C40.8251 70.4459 40.7621 70.0303 40.6906 69.6189C40.6443 69.3539 40.5979 69.0905 40.5648 68.8234C40.5351 68.7707 40.5178 68.7044 40.5208 68.6284C40.5256 68.4925 40.5206 68.3559 40.5205 68.2196C40.5251 67.3181 40.5655 66.4147 40.5849 65.5112C40.6156 64.156 40.6432 62.799 40.6706 61.4436C40.7049 59.7498 40.736 58.054 40.7687 56.36C40.8057 54.4361 40.8411 52.512 40.8765 50.5879C40.9134 48.5682 40.9518 46.5487 40.9886 44.529C41.0258 42.5239 41.0679 40.5193 41.1149 38.5134C41.1581 36.6321 41.2012 34.7525 41.2445 32.8712C41.2825 31.249 41.311 29.6261 41.3605 28.0032C41.3995 26.7428 41.4612 25.4843 41.5147 24.2252C41.5342 23.7726 41.573 23.3216 41.6136 22.8691C41.6279 22.6951 41.6424 22.5195 41.6568 22.3455C41.6569 22.3439 41.657 22.3423 41.6572 22.3407C41.6691 21.8226 41.6794 21.3044 41.6865 20.7859C41.7186 18.8421 41.7167 16.8987 41.7651 14.9546C41.7788 14.4156 41.7924 13.8766 41.8076 13.3377C41.791 12.5755 41.8308 11.7986 41.8708 11.0379C41.9356 9.77967 42.0101 8.52223 42.0975 7.26585C42.1651 6.30953 42.2079 5.3382 42.3798 4.39374C42.4606 3.94622 42.6017 3.49394 42.8723 3.12372C43.1207 2.78574 43.4477 2.51911 43.8148 2.31581C44.5779 1.89375 45.4755 1.6904 46.3195 1.50697C49.9895 0.709891 53.805 0.940234 57.4046 1.96055C58.083 2.15276 58.7802 2.353 59.4004 2.69937C59.6734 2.85165 59.9301 3.04314 60.1099 3.30128C60.3204 3.60088 60.3108 3.97316 60.3467 4.32487C60.3988 4.83363 60.4541 5.34265 60.4526 5.85348C60.4507 6.24911 60.4391 6.64556 60.4259 7.04188C60.396 7.97534 60.3612 8.9084 60.3265 9.83986C60.3438 9.96456 60.3562 10.0905 60.3604 10.2157C60.3667 10.4936 60.3714 10.7714 60.3776 11.0493C60.3886 11.6049 60.3656 12.1594 60.3506 12.7145C60.299 14.6584 60.2394 16.5999 60.1635 18.5434C60.1247 19.5248 60.0874 20.5079 60.0486 21.4893C60.0292 21.9808 60.0099 22.4707 59.9904 22.9622C59.9729 23.4101 59.9822 23.8683 59.9324 24.3151C59.9375 24.6854 59.9409 25.0571 59.9394 25.4301C59.9313 26.7871 59.9297 28.143 59.9055 29.4986C59.8745 31.1928 59.845 32.887 59.814 34.5811C59.7802 36.5054 59.748 38.4297 59.7142 40.354C59.6806 42.3739 59.6373 44.3931 59.5941 46.4122C59.552 48.4169 59.51 50.4215 59.4662 52.4276C59.4262 54.3092 59.3863 56.1891 59.3447 58.0705C59.3098 59.693 59.2732 61.3169 59.2351 62.939C59.2058 64.1986 59.1764 65.4598 59.1439 66.7191C59.1326 67.1707 59.1196 67.6238 59.1067 68.0753C59.102 68.2501 59.0989 68.425 59.0894 68.5994C59.0848 68.6753 59.0802 68.7511 59.0757 68.8254C59.0727 68.8608 59.0714 68.8964 59.0685 68.9318C59.066 68.9624 59.0602 68.9928 59.0578 69.0218C59.0568 69.0347 59.0558 69.0459 59.0552 69.054L59.0567 69.0557ZM59.811 6.63106C59.8231 6.22816 59.8355 5.82205 59.8169 5.41824C59.805 5.16909 59.7817 4.92061 59.7584 4.67213C59.7384 4.46286 59.7166 4.25506 59.6949 4.04564C59.6868 3.96712 59.6838 3.88576 59.6659 3.80805C59.6609 3.78979 59.6559 3.77154 59.6509 3.75329C59.648 3.7498 59.6303 3.70779 59.6275 3.70269C59.6232 3.69585 59.586 3.63601 59.5862 3.63279L59.5862 3.63279L59.5862 3.63279C59.5745 3.61722 59.5611 3.60314 59.5478 3.58744C59.5092 3.54371 59.4672 3.50293 59.425 3.46377C59.36 3.4065 59.2169 3.31198 59.1085 3.24951C58.8329 3.09052 58.536 2.97358 58.2365 2.86777C57.535 2.62175 56.8101 2.42247 56.0881 2.24776C52.5401 1.38903 48.6845 1.38896 45.1718 2.42286C44.4752 2.62818 43.702 2.9164 43.2955 3.55766C42.9636 4.08178 42.9013 4.73845 42.8368 5.34303C42.7305 6.3367 42.6628 7.33518 42.5934 8.33351C42.5824 8.4867 42.5732 8.63841 42.5621 8.7916C43.0766 8.53233 43.6265 8.33599 44.1784 8.17388C44.8084 7.98902 45.4459 7.83074 46.0878 7.69876C48.3875 7.23149 50.7596 7.10596 53.0964 7.32951C55.372 7.54801 57.6145 8.0882 59.7296 8.95526C59.7611 8.17927 59.7895 7.40301 59.8112 6.62784L59.811 6.63106ZM59.6805 10.1013C59.686 9.97519 59.6914 9.85073 59.6969 9.72467C58.5135 9.22479 57.2894 8.82537 56.037 8.53229C53.8027 8.00901 51.4915 7.82975 49.2014 7.98313C48.0629 8.05955 46.9318 8.22416 45.8166 8.46958C44.7162 8.71297 43.6517 9.09233 42.5563 9.35398C42.5789 9.49371 42.598 9.63479 42.609 9.77682C42.7332 9.72704 42.8718 9.69792 42.9983 9.65969C43.3176 9.56437 43.6397 9.47415 43.9613 9.39037C44.5979 9.2239 45.2406 9.10172 45.8897 8.99954C48.2122 8.62985 50.5718 8.53735 52.9174 8.73243C55.213 8.92501 57.4868 9.3818 59.6757 10.1009L59.6805 10.1013ZM59.624 11.2969C59.6321 11.1208 59.6401 10.9446 59.6498 10.7686C58.4173 10.3523 57.1584 10.0198 55.8811 9.7733C53.6075 9.33436 51.2841 9.18329 48.971 9.28286C47.8217 9.33244 46.6765 9.45048 45.5419 9.63752C44.9712 9.73158 44.3998 9.8353 43.8327 9.94587C43.5541 10.0007 43.2751 10.0588 42.9974 10.1219C42.8718 10.1505 42.7526 10.1796 42.6267 10.1919C42.631 10.3756 42.6368 10.5609 42.6411 10.7446C42.6569 11.3006 42.6387 11.8555 42.6318 12.4113C42.6307 12.5621 42.628 12.7127 42.6271 12.8619C42.7288 12.8281 42.8346 12.8044 42.9345 12.7737C43.2538 12.6783 43.5759 12.5881 43.8975 12.5043C44.5341 12.3379 45.1766 12.2173 45.8259 12.1135C48.1482 11.7454 50.508 11.6513 52.8535 11.848C55.1201 12.0382 57.3655 12.4845 59.5281 13.1885C59.5315 13.1076 59.5365 13.0269 59.5415 12.9463C59.5508 12.7361 59.56 12.526 59.5692 12.3159C59.5843 11.9749 59.601 11.6357 59.6242 11.2953L59.624 11.2969ZM59.4397 15.2623C59.4606 14.7936 59.4814 14.3249 59.5022 13.8562C58.2961 13.4534 57.0641 13.1296 55.8139 12.8886C53.5403 12.4497 51.217 12.2986 48.9038 12.3982C47.7545 12.4478 46.6094 12.5658 45.4747 12.7528C44.9041 12.8469 44.3327 12.9506 43.7656 13.0612C43.4869 13.1161 43.208 13.1742 42.9303 13.2372C42.8261 13.2611 42.7252 13.2852 42.6218 13.2994C42.615 13.9136 42.6082 14.5262 42.6015 15.1388C42.6964 15.1093 42.794 15.0865 42.8855 15.0584C43.2048 14.963 43.5269 14.8728 43.8485 14.789C44.4851 14.6226 45.1277 14.502 45.777 14.3982C48.0993 14.0301 50.4591 13.936 52.8046 14.1327C55.0534 14.3214 57.283 14.7632 59.4301 15.4578C59.4323 15.3914 59.436 15.3269 59.4381 15.2621L59.4397 15.2623ZM58.3749 65.8949C58.4056 64.5397 58.4332 63.1827 58.4606 61.8273C58.4949 60.1335 58.5277 58.4379 58.5587 56.7437C58.5957 54.8198 58.6311 52.8957 58.6666 50.9716C58.7034 48.9519 58.7418 46.9324 58.7786 44.9127C58.8158 42.9076 58.8595 40.9031 58.9049 38.8971C58.9481 37.0158 58.9912 35.1362 59.0345 33.2549C59.0726 31.6327 59.0994 30.0096 59.1505 28.3869C59.1865 27.2025 59.2435 26.0199 59.2941 24.8367C58.1337 24.3517 56.9363 23.9626 55.7125 23.6767C55.504 23.6287 55.2953 23.5823 55.0848 23.539L54.8305 23.5342C54.8317 23.5197 54.8314 23.5035 54.831 23.4889C52.8734 23.1117 50.8668 22.9948 48.877 23.1276C48.2752 23.1671 47.6761 23.2329 47.0799 23.3216C47.079 23.3329 47.0797 23.3443 47.0804 23.3557L46.8269 23.3608C46.3798 23.4326 45.9348 23.5175 45.492 23.6156C44.3668 23.8651 43.2803 24.2556 42.159 24.5167C42.1541 24.5163 42.1506 24.5193 42.1458 24.5189C42.1474 24.6958 42.1475 24.8726 42.1457 25.0509C42.1376 26.4079 42.1361 27.7638 42.1119 29.1195C42.0808 30.8136 42.0498 32.5078 42.0204 34.202C41.9865 36.1262 41.9544 38.0506 41.9206 39.9748C41.8854 41.9947 41.8437 44.0139 41.8005 46.0331C41.7584 48.0377 41.7163 50.0424 41.6725 52.0485C41.6325 53.9301 41.5927 55.81 41.551 57.6914C41.5162 59.3138 41.4797 60.9361 41.4415 62.5599C41.4122 63.8195 41.3828 65.0806 41.3503 66.3399C41.339 66.7916 41.326 67.2447 41.3131 67.6961C41.3084 67.8709 41.3053 68.0459 41.2958 68.2203C41.2919 68.267 41.2897 68.3138 41.2875 68.3607C41.3524 68.3012 41.4187 68.245 41.4834 68.1871C41.7053 67.9945 41.9429 67.8276 42.2053 67.6951C42.6622 67.4652 43.1704 67.3416 43.6846 67.4003C44.1682 67.4564 44.6396 67.6218 45.04 67.8997C45.2042 68.0138 45.3838 68.1568 45.5404 68.3222L45.8498 68.3477C45.8405 68.4605 45.831 68.5749 45.82 68.6891C45.8441 68.7316 45.8664 68.7757 45.8854 68.821C45.9917 68.6725 46.123 68.5357 46.2456 68.4063C46.4767 68.1609 46.7418 67.9557 47.0246 67.7714C48.0394 67.1106 49.2917 66.8148 50.4923 66.9885C51.1287 67.0799 51.747 67.2736 52.3099 67.5877C52.5921 67.7456 52.8542 67.9311 53.1049 68.1366C53.1809 68.1981 53.2534 68.2624 53.3242 68.3283C53.3194 67.7975 53.3243 67.2658 53.334 66.7346L53.7179 66.7419C53.698 67.3372 53.6873 67.9381 53.6431 68.533C53.9102 68.2647 54.2565 68.0581 54.5768 67.8915C55.3547 67.4868 56.3119 67.2884 57.1668 67.5633C57.5649 67.6918 57.932 67.9022 58.2449 68.1794C58.2676 68.1991 58.2887 68.2187 58.3097 68.2399C58.3207 67.4573 58.3528 66.6749 58.3702 65.8929L58.3749 65.8949ZM59.2717 20.4666C59.3131 19.0199 59.3499 17.5712 59.4058 16.1257C58.2138 15.7305 56.9992 15.4114 55.7666 15.1734C53.493 14.7345 51.1697 14.5834 48.8565 14.683C47.7072 14.7326 46.562 14.8506 45.4274 15.0377C44.8568 15.1317 44.2854 15.2355 43.7182 15.346C43.4396 15.4009 43.1607 15.459 42.883 15.5221C42.7871 15.5434 42.6928 15.5664 42.5975 15.5812C42.586 16.4676 42.5744 17.3555 42.5565 18.2413C42.5443 18.881 42.5306 19.519 42.5152 20.1584C42.6034 20.1316 42.6944 20.1099 42.7793 20.0829C43.0986 19.9876 43.4207 19.8973 43.7423 19.8136C44.3789 19.6471 45.0216 19.5249 45.6708 19.4227C47.9931 19.0547 50.3529 18.9605 52.6984 19.1572C54.9296 19.3429 57.1401 19.7799 59.2718 20.465L59.2717 20.4666ZM59.2301 21.8355C59.238 21.6025 59.2442 21.3695 59.2521 21.1365C58.0757 20.7475 56.8753 20.4344 55.6585 20.2011C53.3849 19.7621 51.0614 19.6127 48.7483 19.7122C47.599 19.7618 46.4538 19.8799 45.3192 20.0669C44.7486 20.1609 44.1771 20.2647 43.61 20.3752C43.3314 20.4301 43.0525 20.4882 42.7747 20.5513C42.6821 20.5728 42.5945 20.5932 42.504 20.6084C42.4993 20.8027 42.4945 20.9986 42.4899 21.1928C42.4869 21.3078 42.484 21.4211 42.481 21.536C42.571 21.5077 42.6636 21.4862 42.7501 21.4592C43.0694 21.3639 43.3916 21.2737 43.7132 21.1899C44.3498 21.0234 44.9924 20.9013 45.6416 20.7991C47.9641 20.4294 50.3237 20.3369 52.6692 20.5336C54.8955 20.7204 57.1013 21.1554 59.23 21.8371L59.2301 21.8355ZM59.2013 22.756C59.2033 22.6719 59.207 22.5878 59.2092 22.502C58.0376 22.115 56.8402 21.8038 55.6284 21.5692C53.3548 21.1303 51.0313 20.9808 48.7182 21.0804C47.5689 21.13 46.4237 21.248 45.2891 21.4351C44.7184 21.5291 44.147 21.6328 43.5798 21.745C43.3011 21.7999 43.0222 21.858 42.7445 21.9211C42.6503 21.9425 42.5593 21.9642 42.4672 21.9793C42.4613 22.2075 42.4539 22.4356 42.4464 22.6637C42.4335 23.0568 42.4408 23.4597 42.4099 23.8545C42.8739 23.6365 43.3632 23.466 43.8537 23.3215C44.4837 23.1367 45.1212 22.9784 45.763 22.848C48.0627 22.3808 50.4347 22.2552 52.7715 22.4788C54.957 22.6882 57.1115 23.1952 59.152 24.0026C59.1538 23.5875 59.1883 23.1686 59.2011 22.7576L59.2013 22.756ZM58.1206 69.7458C58.1665 69.5436 58.2139 69.3415 58.2614 69.1394C58.1924 69.0526 58.1304 68.9583 58.0632 68.8878C57.9217 68.735 57.76 68.6114 57.5804 68.5074C57.2228 68.2995 56.8004 68.19 56.4023 68.1783C55.9299 68.1636 55.4589 68.2886 55.0377 68.4988C54.8195 68.6073 54.6079 68.7342 54.4127 68.8787C54.2002 69.0364 54.0176 69.2046 53.7848 69.333C53.7049 69.3767 53.6234 69.3814 53.5521 69.3609C53.5146 69.4227 53.4063 69.4381 53.3959 69.348C53.3963 69.3432 53.3952 69.3366 53.394 69.3316C53.3616 69.3306 53.3295 69.3263 53.295 69.3121C53.2053 69.2788 53.1167 69.252 53.0369 69.1967C52.9509 69.1377 52.8864 69.0546 52.8145 68.9821C52.7082 68.8744 52.5969 68.7695 52.48 68.6723C52.2537 68.4849 51.9855 68.3152 51.7201 68.17C50.7798 67.6529 49.6701 67.4787 48.6208 67.7117C48.0854 67.8313 47.5781 68.0425 47.1144 68.3352C46.8884 68.4788 46.6677 68.6374 46.4637 68.8103C46.2859 68.9595 46.1337 69.1335 45.9487 69.2723C45.8662 69.4666 45.5644 69.5066 45.4078 69.3607C45.2573 69.2185 45.1733 69.017 45.0508 68.8706C44.9269 68.7209 44.79 68.5912 44.6364 68.4861C44.3312 68.2727 43.9673 68.1227 43.6087 68.085C43.1922 68.0409 42.7945 68.1038 42.4133 68.28C42.1874 68.3846 41.9677 68.5109 41.7543 68.6393C41.5394 68.7675 41.3415 68.9248 41.11 69.0176C41.1066 69.019 41.1017 69.0202 41.0983 69.0215C41.3374 69.7809 41.5832 70.5376 41.8072 71.3022C42.0803 72.2396 42.3533 73.1769 42.6163 74.1183C43.2137 76.2568 43.831 78.3889 44.4135 80.531C45.0347 82.8126 45.6446 85.0948 46.241 87.3825C46.527 88.4766 46.8114 89.5723 47.0991 90.6666C47.1016 90.6749 47.1042 90.6832 47.1051 90.6914C47.223 90.6784 47.3497 90.7148 47.4615 90.737C47.6512 90.777 47.8365 90.8312 48.0264 90.8696C48.387 90.9415 48.7407 90.9998 49.1077 91.0139C49.4442 91.0254 49.8142 91.0235 50.1283 90.9715C50.2762 90.9481 50.4564 90.9062 50.577 90.8609C50.6574 90.8303 50.7293 90.7843 50.8086 90.747C50.9149 90.6974 51.0264 90.6823 51.1052 90.6709C51.1134 90.67 51.1216 90.669 51.1298 90.6681C52.2215 87.3631 53.3433 84.0672 54.4415 80.7628C55.0805 78.8365 55.7272 76.9142 56.3915 74.9965C56.7295 74.0252 57.0943 73.0642 57.4544 72.0996C57.4898 72.0052 57.525 71.9124 57.5604 71.818C57.5851 71.7341 57.6099 71.6501 57.6316 71.5643C57.7935 70.9581 57.9823 70.3605 58.1188 69.7473L58.1206 69.7458ZM50.6357 92.1748C50.6899 92.0089 50.7459 91.8416 50.8001 91.6758C50.662 91.7179 50.5186 91.745 50.3872 91.765C49.9749 91.8283 49.5658 91.8319 49.1516 91.7799C48.731 91.7273 48.2979 91.6478 47.8996 91.5014C47.6981 91.428 47.4898 91.3379 47.3037 91.2333C47.2852 91.2221 47.2649 91.2123 47.2449 91.1993C47.4693 92.0385 47.6969 92.8781 47.8948 93.7233C48.1108 94.6446 48.3416 95.5639 48.5162 96.4947C48.5925 96.9065 48.6787 97.3175 48.7451 97.7318C48.771 97.8896 48.7917 98.0519 48.8125 98.2126C48.8742 97.8187 48.9614 97.4301 49.0808 97.0441C49.2511 96.4937 49.4246 95.9435 49.5997 95.3935C49.9399 94.3169 50.2863 93.2441 50.6376 92.1717L50.6357 92.1748Z" fill="#3b1d0f" fill-rule="nonzero" opacity="1" stroke="none"/>
<path d="M59.8185 5.41838C59.8371 5.82218 59.8231 6.22816 59.8126 6.63119C59.7907 7.40798 59.7624 8.18423 59.7309 8.95861C57.616 8.08994 55.3733 7.55136 53.0977 7.33286C50.7611 7.1077 48.3889 7.23485 46.0892 7.70211C45.4458 7.83235 44.8083 7.99063 44.1797 8.17724C43.6278 8.33935 43.078 8.53568 42.5635 8.79496C42.5745 8.64177 42.5838 8.49006 42.5948 8.33687C42.664 7.34014 42.7334 6.3418 42.8382 5.34639C42.9026 4.74181 42.9649 4.08514 43.2969 3.56101C43.7034 2.91976 44.4767 2.62993 45.1731 2.42621C48.6858 1.39232 52.5398 1.39226 56.0895 2.25111C56.8115 2.42583 57.5379 2.62524 58.2379 2.87113C58.5373 2.97693 58.8342 3.09388 59.1099 3.25286C59.2183 3.31533 59.3613 3.40985 59.4263 3.46712C59.4701 3.50642 59.5123 3.54559 59.5491 3.5908C59.5626 3.60488 59.5743 3.62044 59.5876 3.63614L59.5876 3.63614C59.5876 3.63614 59.6247 3.6976 59.6289 3.70605C59.6317 3.71115 59.6509 3.75329 59.6523 3.75664C59.6572 3.7749 59.6638 3.79328 59.6672 3.8114C59.6851 3.88912 59.6881 3.97047 59.6963 4.049C59.7181 4.2568 59.7397 4.46621 59.7598 4.67549C59.7847 4.9241 59.808 5.17257 59.8183 5.4216L59.8185 5.41838Z" fill="#ffd459" fill-rule="nonzero" opacity="1" stroke="none"/>
<path d="M59.6968 9.72628C59.6913 9.85234 59.6859 9.9768 59.6804 10.1029C57.4915 9.38381 55.2177 8.92702 52.9221 8.73444C50.5782 8.53789 48.2185 8.63199 45.8944 9.00155C45.2453 9.10373 44.601 9.22577 43.966 9.39238C43.6444 9.47616 43.3223 9.56638 43.003 9.6617C42.8765 9.69993 42.7379 9.72905 42.6137 9.77883C42.6027 9.6368 42.5818 9.4972 42.561 9.35599C43.6548 9.09421 44.7192 8.71646 45.8213 8.47159C46.935 8.22443 48.0676 8.06156 49.2061 7.98514C51.4946 7.83162 53.8076 8.00941 56.0417 8.5343C57.2924 8.82725 58.5166 9.22667 59.7016 9.72668L59.6968 9.72628Z" fill="#c2c2c2" fill-rule="nonzero" opacity="1" stroke="none"/>
<path d="M59.6498 10.7686C59.6417 10.9448 59.6337 11.1209 59.624 11.2969C59.6008 11.6373 59.5842 11.9765 59.5691 12.3175C59.5598 12.5276 59.5506 12.7378 59.5414 12.9479C59.5364 13.0286 59.533 13.1094 59.5279 13.1901C57.3654 12.4862 55.1201 12.0382 52.8534 11.8496C50.5095 11.6531 48.1497 11.7472 45.8258 12.1151C45.1765 12.2189 44.5323 12.3393 43.8973 12.506C43.5757 12.5897 43.2536 12.68 42.9343 12.7753C42.8346 12.8044 42.7287 12.8297 42.627 12.8635C42.628 12.7127 42.6307 12.5621 42.6317 12.4129C42.6386 11.8571 42.6568 11.3023 42.641 10.7462C42.6351 10.5624 42.6309 10.3772 42.6266 10.1935C42.7525 10.1812 42.8717 10.1521 42.9973 10.1235C43.275 10.0605 43.5523 10.0022 43.8326 9.94748C44.3997 9.83691 44.9711 9.73319 45.5417 9.63913C46.6764 9.45209 47.8216 9.33405 48.9708 9.28447C51.284 9.1849 53.6073 9.33597 55.8809 9.77491C57.1583 10.0214 58.4171 10.3539 59.6496 10.7702L59.6498 10.7686Z" fill="#c2c2c2" fill-rule="nonzero" opacity="1" stroke="none"/>
<path d="M59.5022 13.8562C59.4814 14.3249 59.4606 14.7936 59.4397 15.2623C59.4375 15.3286 59.4338 15.3932 59.4317 15.4579C57.283 14.7632 55.055 14.3216 52.8062 14.1329C50.4623 13.9363 48.1025 14.0304 45.7786 14.3983C45.1293 14.5021 44.4851 14.6226 43.8501 14.7892C43.5286 14.873 43.2064 14.9632 42.8871 15.0585C42.7956 15.0866 42.698 15.1094 42.6031 15.1389C42.6099 14.5263 42.6167 13.9121 42.6234 13.2995C42.7268 13.2853 42.8277 13.2612 42.9319 13.2374C43.2096 13.1743 43.4869 13.1161 43.7672 13.0613C44.3343 12.9508 44.9058 12.8454 45.4763 12.753C46.611 12.5659 47.7562 12.4479 48.9054 12.3983C51.2186 12.2987 53.5419 12.4498 55.8155 12.8887C57.0641 13.1296 58.2961 13.4534 59.5038 13.8564L59.5022 13.8562Z" fill="#c2c2c2" fill-rule="nonzero" opacity="1" stroke="none"/>
<path d="M58.4606 61.8273C58.4332 63.1827 58.4057 64.5381 58.3749 65.8949C58.3575 66.6769 58.3254 67.4593 58.3144 68.2419C58.2933 68.2223 58.2723 68.2011 58.2496 68.1814C57.9367 67.9042 57.5696 67.6938 57.1715 67.5653C56.3166 67.2904 55.3594 67.4888 54.5815 67.8935C54.2611 68.0617 53.9131 68.2682 53.6478 68.535C53.692 67.9401 53.7027 67.3392 53.7226 66.7439C53.7656 65.4742 53.8136 64.2048 53.8647 62.9357C53.9274 61.3496 53.9854 59.7615 54.0416 58.1749C54.1065 56.3847 54.1713 54.596 54.2379 52.8059C54.3086 50.9058 54.3795 49.004 54.4502 47.104C54.522 45.191 54.5938 43.278 54.6655 41.3666C54.734 39.5328 54.7995 37.6972 54.8631 35.863C54.9189 34.2228 54.9746 32.5843 55.0272 30.9438C55.0708 29.5882 55.1144 28.2341 55.1354 26.8781C55.1492 25.9044 55.132 24.933 55.1051 23.9608C55.102 23.821 55.0894 23.6789 55.0865 23.5375C55.297 23.5808 55.5058 23.6256 55.7142 23.6753C56.9379 23.9627 58.1371 24.3503 59.2958 24.8352C59.2453 26.0184 59.1883 27.201 59.1522 28.3854C59.1011 30.0081 59.0743 31.6312 59.0362 33.2534C58.9914 35.1346 58.9481 37.0158 58.9066 38.8956C58.8614 40.9 58.8176 42.9061 58.7803 44.9112C58.7435 46.9309 58.7067 48.9506 58.6683 50.9701C58.6329 52.8942 58.5975 54.8183 58.5604 56.7423C58.5278 58.4362 58.4951 60.1302 58.4623 61.8258L58.4606 61.8273Z" fill="#40637f" fill-rule="nonzero" opacity="1" stroke="none"/>
<path d="M59.4058 16.1257C59.3498 17.5728 59.3147 19.02 59.2717 20.4666C57.14 19.7815 54.9293 19.3461 52.6982 19.1588C50.3543 18.9623 47.9946 19.0564 45.6706 19.4243C45.0215 19.5265 44.3772 19.6486 43.7422 19.8152C43.4206 19.8989 43.0985 19.9892 42.7792 20.0845C42.6927 20.1098 42.6032 20.1332 42.515 20.16C42.5305 19.5206 42.5442 18.8826 42.5564 18.2429C42.5744 17.3555 42.5859 16.4692 42.5973 15.5829C42.6926 15.568 42.787 15.545 42.8828 15.5237C43.1605 15.4606 43.4378 15.4024 43.7181 15.3476C44.2852 15.2371 44.8566 15.1333 45.4273 15.0393C46.5619 14.8522 47.7071 14.7342 48.8564 14.6846C51.1695 14.5851 53.4928 14.7361 55.7665 15.1751C56.9991 15.413 58.2153 15.7323 59.4057 16.1273L59.4058 16.1257Z" fill="#c2c2c2" fill-rule="nonzero" opacity="1" stroke="none"/>
<path d="M59.2506 21.1348C59.2428 21.3677 59.2365 21.6008 59.2287 21.8337C57.1016 21.1522 54.8941 20.7171 52.6678 20.5302C50.324 20.3337 47.9642 20.4278 45.6402 20.7957C44.9911 20.8979 44.3468 21.0199 43.7118 21.1866C43.3902 21.2703 43.0681 21.3606 42.7488 21.4559C42.6606 21.4827 42.5696 21.5044 42.4797 21.5326C42.4827 21.4177 42.4857 21.3028 42.4885 21.1895C42.4932 20.9952 42.498 20.7993 42.5027 20.6051C42.5931 20.5898 42.6824 20.5696 42.7734 20.5479C43.0511 20.4849 43.3284 20.4266 43.6087 20.3719C44.1758 20.2613 44.7473 20.156 45.3178 20.0635C46.4525 19.8765 47.5977 19.7585 48.7469 19.7089C51.0601 19.6093 53.3834 19.7604 55.6572 20.1977C56.8738 20.4327 58.0743 20.7458 59.2508 21.1332L59.2506 21.1348Z" fill="#c2c2c2" fill-rule="nonzero" opacity="1" stroke="none"/>
<path d="M59.2091 22.5036C59.207 22.5878 59.2033 22.6719 59.2011 22.7576C59.1883 23.1686 59.1538 23.5875 59.152 24.0026C57.1116 23.1936 54.957 22.6882 52.7715 22.4788C50.4349 22.2536 48.0627 22.3808 45.763 22.848C45.1196 22.9783 44.4821 23.1365 43.8537 23.3215C43.3632 23.466 42.8739 23.6365 42.4099 23.8545C42.4424 23.4598 42.4351 23.0569 42.4464 22.6637C42.4539 22.4356 42.4613 22.2075 42.4672 21.9793C42.5593 21.9642 42.6503 21.9425 42.7445 21.9211C43.0222 21.858 43.2995 21.7998 43.5798 21.745C44.1469 21.6344 44.7184 21.5291 45.2891 21.4351C46.4237 21.248 47.5689 21.13 48.7182 21.0804C51.0313 20.9808 53.3546 21.1319 55.6284 21.5692C56.8402 21.8038 58.036 22.1149 59.2092 22.502L59.2091 22.5036Z" fill="#c2c2c2" fill-rule="nonzero" opacity="1" stroke="none"/>
<path d="M58.2613 69.141C58.2138 69.3431 58.1648 69.5434 58.1204 69.7474C57.9839 70.3606 57.7951 70.9582 57.6332 71.5645C57.61 71.6485 57.5869 71.7326 57.562 71.8181C57.5268 71.9109 57.4914 72.0053 57.456 72.0997C57.096 73.0628 56.7311 74.0254 56.3931 74.9967C55.7272 76.9142 55.0821 78.8367 54.4431 80.7629C53.3465 84.0674 52.2232 87.3617 51.1314 90.6682C51.1233 90.6676 51.115 90.6701 51.1068 90.6711C51.0296 90.6825 50.9165 90.6975 50.8102 90.7472C50.7325 90.7846 50.6606 90.8305 50.5786 90.8611C50.4579 90.9079 50.2762 90.9481 50.1299 90.9717C49.8142 91.0235 49.4457 91.0272 49.1093 91.014C48.7407 90.9998 48.387 90.9415 48.028 90.8697C47.838 90.8329 47.6527 90.7787 47.4631 90.7371C47.3515 90.7133 47.2246 90.6785 47.1067 90.6915C47.1042 90.6832 47.1016 90.6749 47.1007 90.6667C46.813 89.5724 46.5285 88.4784 46.2426 87.3826C45.6446 85.0948 45.0363 82.8127 44.4151 80.5311C43.831 78.3889 43.2153 76.257 42.6179 74.1185C42.355 73.1771 42.0801 72.2412 41.8088 71.3023C41.5864 70.5378 41.339 69.781 41.0999 69.0216C41.1049 69.0204 41.1083 69.0191 41.1116 69.0177C41.3447 68.925 41.541 68.7677 41.756 68.6394C41.9693 68.511 42.189 68.3848 42.4149 68.2801C42.7962 68.1023 43.1954 68.0412 43.6103 68.0851C43.9689 68.1228 44.3328 68.2729 44.638 68.4862C44.7914 68.5929 44.9267 68.7225 45.0524 68.8707C45.1749 69.0171 45.2588 69.2203 45.4094 69.3608C45.5659 69.5084 45.8678 69.4668 45.9503 69.2724C46.1352 69.1352 46.2859 68.9595 46.4653 68.8105C46.6708 68.6393 46.8901 68.4789 47.116 68.3353C47.5797 68.0427 48.0871 67.8299 48.6224 67.7118C49.6717 67.4788 50.7814 67.653 51.7217 68.1702C51.9871 68.3153 52.2537 68.4849 52.4816 68.6724C52.5985 68.7697 52.71 68.8729 52.8161 68.9823C52.8879 69.0563 52.9525 69.1379 53.0385 69.1969C53.1167 69.252 53.2069 69.2789 53.2966 69.3122C53.3297 69.3247 53.3632 69.3307 53.3956 69.3318C53.3952 69.3366 53.3963 69.3432 53.3975 69.3481C53.4079 69.4382 53.5162 69.4228 53.5538 69.361C53.6249 69.3831 53.7049 69.3767 53.7864 69.3332C54.0207 69.2065 54.2034 69.0367 54.4143 68.8789C54.6096 68.7328 54.8212 68.6059 55.0393 68.4989C55.4604 68.2904 55.9314 68.1654 56.4039 68.1784C56.802 68.1901 57.2244 68.2996 57.582 68.5075C57.7632 68.6117 57.9233 68.7352 58.0648 68.888C58.1304 68.9583 58.1938 69.0543 58.263 69.1395L58.2613 69.141Z" fill="#fffad5" fill-rule="nonzero" opacity="1" stroke="none"/>
<path d="M55.1353 26.8797C55.1159 28.2358 55.0707 29.5898 55.027 30.9455C54.9746 32.5843 54.9188 34.2245 54.863 35.8646C54.8009 37.6989 54.734 39.5328 54.6654 41.3682C54.5936 43.2812 54.5218 45.1942 54.4501 47.1056C54.3794 49.0057 54.3069 50.9072 54.2377 52.8075C54.1712 54.5976 54.1064 56.3863 54.0415 58.1765C53.9852 59.7631 53.9274 61.3496 53.8646 62.9373C53.8134 64.2064 53.7655 65.4758 53.7224 66.7456L53.3386 66.7382C53.3429 66.4693 53.3487 66.2022 53.3547 65.9334C53.3824 64.5748 53.4135 63.2148 53.4477 61.8551C53.4888 60.2169 53.5462 58.5769 53.6018 56.9383C53.6631 55.1137 53.7244 53.289 53.7874 51.4629C53.8534 49.5414 53.9194 47.6198 53.9855 45.6982C54.0514 43.7977 54.1158 41.8955 54.1801 39.9949C54.2409 38.1961 54.3065 36.3978 54.3688 34.5992C54.4245 33.019 54.477 31.4386 54.5278 29.8597C54.5678 28.588 54.6174 27.3172 54.6671 26.0463C54.7003 25.2105 54.8182 24.3718 54.8338 23.5329L55.0881 23.5376C55.0911 23.679 55.1037 23.8212 55.1067 23.9609C55.1336 24.9331 55.1508 25.9045 55.137 26.8783L55.1353 26.8797Z" fill="#3b1d0f" fill-rule="nonzero" opacity="1" stroke="none"/>
<path d="M54.8321 23.5344C54.8166 24.3717 54.6986 25.2119 54.6654 26.0478C54.6157 27.3186 54.5676 28.5896 54.526 29.8611C54.4752 31.4417 54.4212 33.0204 54.3671 34.6007C54.3047 36.3993 54.2391 38.1976 54.1784 39.9963C54.1141 41.897 54.0482 43.7975 53.9837 45.6997C53.9177 47.6213 53.8517 49.5428 53.7857 51.4644C53.7228 53.2889 53.6615 55.1136 53.6001 56.9398C53.546 58.5785 53.4872 60.2168 53.446 61.8566C53.4117 63.2163 53.3808 64.5746 53.3529 65.9349C53.347 66.2036 53.3412 66.4708 53.3369 66.7397C53.3271 67.2709 53.3222 67.8026 53.3271 68.3334C53.2563 68.2675 53.182 68.2046 53.1077 68.1417C52.857 67.9361 52.5949 67.7507 52.3127 67.5928C51.7498 67.2787 51.1314 67.0866 50.4951 66.9936C49.2945 66.8199 48.0422 67.1157 47.0275 67.7765C46.7446 67.9608 46.4795 68.166 46.2484 68.4114C46.1276 68.5393 45.9963 68.6761 45.8882 68.8261C45.8691 68.7824 45.8469 68.7367 45.8228 68.6942C45.8339 68.58 45.8449 68.4657 45.8527 68.3512C45.9001 67.7371 45.9091 67.1166 45.9275 66.5001C45.9658 65.2299 46.0089 63.9601 46.0535 62.6921C46.109 61.1136 46.158 59.5361 46.207 57.9586C46.262 56.1708 46.3186 54.383 46.3752 52.5953C46.4362 50.6961 46.497 48.7984 46.5579 46.8991C46.6198 44.9885 46.6801 43.0779 46.7419 41.1673C46.7999 39.344 46.8563 37.519 46.9094 35.6953C46.957 34.056 47.003 32.4167 47.0488 30.7789C47.0859 29.4243 47.1247 28.0698 47.1391 26.715C47.1499 25.7378 47.129 24.7725 47.1008 23.797C47.0965 23.6523 47.0841 23.5069 47.0815 23.3623C47.0824 23.351 47.0817 23.3396 47.081 23.3282C47.6771 23.2395 48.2761 23.1753 48.8781 23.1341C50.8681 22.9998 52.8745 23.1183 54.8321 23.4954C54.8309 23.5099 54.8311 23.5262 54.8316 23.5408L54.8321 23.5344Z" fill="#97e4ff" fill-rule="nonzero" opacity="1" stroke="none"/>
<path d="M50.8 91.6774C50.7457 91.8432 50.6899 92.0089 50.6355 92.1764C50.2859 93.249 49.9394 94.3234 49.5977 95.3982C49.4226 95.9482 49.2507 96.4985 49.0788 97.0488C48.9594 97.4348 48.8722 97.8234 48.8105 98.2173C48.7898 98.055 48.769 97.8943 48.7431 97.7365C48.6767 97.3222 48.5905 96.9112 48.5142 96.4994C48.3412 95.5687 48.1104 94.6494 47.8928 93.728C47.6949 92.8828 47.4657 92.0431 47.2429 91.204C47.263 91.2154 47.2832 91.2268 47.3017 91.238C47.4878 91.3426 47.6977 91.4329 47.8976 91.5061C48.2975 91.6527 48.729 91.732 49.1496 91.7846C49.5622 91.8365 49.9729 91.833 50.3852 91.7697C50.5182 91.7499 50.6601 91.721 50.7981 91.6805L50.8 91.6774Z" fill="#3b1d0f" fill-rule="nonzero" opacity="1" stroke="none"/>
<path d="M47.1411 26.7103C47.1267 28.0651 47.088 29.4196 47.0508 30.7742C47.0065 32.4137 46.959 34.0513 46.9114 35.6906C46.8583 37.5143 46.8019 39.3393 46.7439 41.1626C46.6837 43.0733 46.6218 44.9838 46.5599 46.8944C46.499 48.7937 46.4382 50.6914 46.3772 52.5906C46.3206 54.3783 46.264 56.1661 46.209 57.9539C46.16 59.5314 46.1109 61.1105 46.0555 62.6874C46.0108 63.9571 45.9677 65.2268 45.9296 66.4954C45.9113 67.1103 45.9022 67.7324 45.8547 68.3465L45.5454 68.321C45.5286 67.4437 45.5445 66.5626 45.5585 65.6846C45.5808 64.332 45.6062 62.9813 45.6334 61.6291C45.6663 59.9919 45.717 58.3545 45.7627 56.7184C45.8132 54.8864 45.8653 53.0545 45.9191 51.2228C45.9745 49.3117 46.03 47.4006 46.0852 45.4911C46.1397 43.5913 46.1941 41.6931 46.2502 39.7934C46.302 38.0053 46.3571 36.2158 46.4089 34.4277C46.4553 32.8419 46.5018 31.2561 46.5451 29.6684C46.5802 28.398 46.6231 27.1299 46.6678 25.8602C46.6974 25.0289 46.8118 24.1933 46.827 23.3591L47.0805 23.3541C47.0832 23.4987 47.0955 23.6441 47.0998 23.7888C47.128 24.7644 47.149 25.7296 47.1381 26.7068L47.1411 26.7103Z" fill="#3b1d0f" fill-rule="nonzero" opacity="1" stroke="none"/>
<path d="M46.8285 23.3609C46.8133 24.195 46.6989 25.0307 46.6693 25.862C46.623 27.1315 46.5816 28.3998 46.5466 29.6702C46.5034 31.2563 46.4569 32.842 46.4104 34.4295C46.357 36.2174 46.3019 38.0069 46.2517 39.7951C46.1972 41.695 46.1428 43.5932 46.0867 45.4928C46.0313 47.4039 45.976 49.3134 45.9206 51.2245C45.8684 53.0564 45.8163 54.8883 45.7642 56.7201C45.7184 58.3563 45.6677 59.9936 45.6349 61.6308C45.6077 62.983 45.5822 64.3353 45.56 65.6863C45.5458 66.5659 45.5284 67.4453 45.5468 68.3243C45.39 68.1605 45.2105 68.016 45.0463 67.9019C44.6459 67.6239 44.1731 67.4568 43.6909 67.4024C43.1783 67.3439 42.6703 67.4658 42.2116 67.6973C41.9493 67.8297 41.71 67.9965 41.4898 68.1892C41.4234 68.247 41.3587 68.3033 41.2938 68.3628C41.2976 68.3161 41.3015 68.2694 41.3021 68.2224C41.3116 68.048 41.3147 67.8731 41.3194 67.6983C41.3323 67.2468 41.3453 66.7937 41.3566 66.3421C41.3891 65.0828 41.4185 63.8216 41.4478 62.5621C41.4859 60.9399 41.5207 59.3175 41.5573 57.6935C41.599 55.8121 41.6388 53.9322 41.6789 52.0507C41.7209 50.046 41.763 48.0414 41.8068 46.0352C41.85 44.0161 41.8917 41.9968 41.9269 39.977C41.9591 38.0526 41.9929 36.1284 42.0267 34.2042C42.0561 32.5099 42.0871 30.8158 42.1182 29.1217C42.144 27.7661 42.1439 26.4101 42.152 25.0531C42.1536 24.8764 42.1521 24.6978 42.1521 24.521C42.157 24.5214 42.1603 24.5201 42.1653 24.5189C43.2851 24.256 44.3731 23.8672 45.4983 23.6178C45.9411 23.5197 46.3861 23.4347 46.8332 23.3629L46.8285 23.3609Z" fill="#40637f" fill-rule="nonzero" opacity="1" stroke="none"/>
</g>
</g>
</svg>
