<?xml version="1.0" encoding="UTF-8" standalone="no"?>
<!DOCTYPE svg PUBLIC "-//W3C//DTD SVG 1.1//EN" "http://www.w3.org/Graphics/SVG/1.1/DTD/svg11.dtd">
<!-- Created with Vectornator (http://vectornator.io/) -->
<svg height="100.0px" stroke-miterlimit="10" style="fill-rule:nonzero;clip-rule:evenodd;stroke-linecap:round;stroke-linejoin:round;" version="1.1" viewBox="0 0 100 100" width="100.0px" xml:space="preserve" xmlns="http://www.w3.org/2000/svg" xmlns:xlink="http://www.w3.org/1999/xlink">
<defs/>
<g id="Слой-1-скопировать">
<g opacity="1">
<path d="M51.9899 71.136C52.0034 71.1067 52.0258 71.0654 52.0071 71.1101C51.953 71.2436 51.8534 71.3135 51.7442 71.3346C51.3443 72.1525 50.8569 72.9249 50.2812 73.6338C50.1388 73.8086 49.9963 73.9798 49.8449 74.1434C49.8339 74.1596 49.8214 74.1753 49.811 74.1901C49.1284 75.1167 48.4331 76.0321 47.7201 76.9359C45.2239 80.1041 42.6124 83.1785 40.0948 86.3315C38.845 87.898 37.6004 89.4686 36.3677 91.0482C35.7494 91.8424 35.1339 92.638 34.5215 93.4349C34.2083 93.8426 33.9057 94.2623 33.5821 94.6617C33.253 95.0692 32.9017 95.4399 32.5114 95.7909C32.4334 95.8601 32.3274 95.847 32.2525 95.7932C32.169 95.8473 32.0241 95.7987 32.04 95.6709C32.0609 95.4973 32.0525 95.3138 32.0589 95.1371C32.1183 93.3238 32.2125 91.5122 32.3574 89.7025C32.5349 87.488 32.6936 85.272 32.8435 83.0556C33.0038 80.6963 33.1758 78.3388 33.36 75.9816C33.5309 73.805 33.7517 71.6318 33.9734 69.4607C34.0696 68.5214 34.1956 67.5832 34.3202 66.6481C34.3749 66.2339 34.4571 65.8217 34.53 65.4105C34.5767 65.1456 34.6228 64.8822 34.6826 64.6198C34.6727 64.5601 34.679 64.4918 34.7078 64.4214C34.7585 64.2953 34.8004 64.1651 34.8467 64.037C35.158 63.1909 35.5037 62.3553 35.8296 61.5124C36.32 60.2487 36.8081 58.9822 37.2955 57.7172C37.9046 56.1363 38.5114 54.5525 39.1191 52.9709C39.8091 51.1746 40.4977 49.3776 41.1863 47.5806C41.9088 45.6942 42.6327 43.8084 43.3551 41.922C44.073 40.0495 44.7953 38.179 45.5226 36.3091C46.204 34.555 46.8847 32.8024 47.5661 31.0483C48.1543 29.5361 48.7338 28.0198 49.333 26.5109C49.799 25.3391 50.2856 24.1769 50.7648 23.0112C50.9372 22.5923 51.1273 22.1815 51.3195 21.7699C51.3923 21.6112 51.4657 21.451 51.5385 21.2923C51.5392 21.2909 51.5398 21.2894 51.5405 21.2879C51.7281 20.8049 51.9143 20.3211 52.0975 19.8361C52.7898 18.0194 53.4499 16.1915 54.1575 14.3801C54.3539 13.878 54.5503 13.3758 54.7482 12.8744C54.9921 12.1521 55.2941 11.4352 55.5908 10.7336C56.0803 9.57266 56.5786 8.41576 57.0887 7.26425C57.4778 6.3881 57.8489 5.48942 58.3322 4.65999C58.5605 4.26671 58.8472 3.88953 59.2278 3.6336C59.5765 3.40045 59.9747 3.2611 60.3891 3.195C61.2503 3.05807 62.1635 3.17256 63.0195 3.28754C66.7416 3.788 70.2506 5.30406 73.2875 7.4893C73.8598 7.90105 74.4471 8.32677 74.9124 8.86368C75.1171 9.0998 75.2933 9.36727 75.3744 9.67124C75.4703 10.0246 75.3345 10.3714 75.2484 10.7143C75.1242 11.2104 75.0028 11.7078 74.8274 12.1875C74.6909 12.5589 74.545 12.9277 74.3976 13.2958C74.0515 14.1633 73.701 15.0287 73.3512 15.8927C73.325 16.0158 73.2937 16.1384 73.2551 16.2576C73.1663 16.521 73.0761 16.7838 72.9874 17.0472C72.8084 17.5734 72.598 18.0869 72.3948 18.6037C71.6842 20.4138 70.967 22.219 70.2337 24.0204C69.863 24.9299 69.4931 25.8416 69.1224 26.7511C68.9368 27.2066 68.7518 27.6606 68.5661 28.1161C68.3971 28.5313 68.2498 28.9652 68.0507 29.3683C67.9295 29.7182 67.8061 30.0689 67.6776 30.419C67.2078 31.6921 66.7446 32.9665 66.2601 34.2328C65.6539 35.8151 65.0492 37.3981 64.4431 38.9803C63.756 40.778 63.0703 42.5764 62.3832 44.3741C61.6637 46.2618 60.9353 48.1455 60.207 50.0292C59.4847 51.8997 58.7624 53.7702 58.038 55.6415C57.3596 57.3969 56.6819 59.1509 56.002 60.9056C55.4166 62.4192 54.8291 63.9336 54.2409 65.4458C53.7844 66.6201 53.3272 67.7958 52.8678 68.9688C52.7034 69.3896 52.5368 69.8111 52.3709 70.2312C52.3069 70.394 52.2445 70.5574 52.1761 70.7181C52.1459 70.7879 52.1157 70.8576 52.0862 70.9259C52.0714 70.9582 52.0581 70.9912 52.0432 71.0236C52.0304 71.0515 52.0147 71.0781 52.0026 71.1045C51.9972 71.1163 51.9925 71.1266 51.9891 71.1339L51.9899 71.136ZM73.9593 12.7001C74.108 12.3255 74.2579 11.9479 74.378 11.5619C74.4516 11.3235 74.5144 11.082 74.5771 10.8404C74.6295 10.6368 74.6798 10.434 74.7307 10.2298C74.7498 10.1532 74.7747 10.0756 74.7843 9.99647C74.7859 9.97761 74.7874 9.95875 74.7889 9.93989C74.7873 9.93561 74.7851 9.89011 74.7841 9.88435C74.7824 9.87645 74.7678 9.80751 74.7692 9.80457L74.7692 9.80457L74.7692 9.80457C74.7635 9.78595 74.7556 9.76813 74.7485 9.74884C74.7271 9.69459 74.7014 9.64193 74.6751 9.59074C74.6335 9.51475 74.5312 9.37715 74.4505 9.2815C74.2455 9.03816 74.0062 8.82708 73.7607 8.62561C73.1849 8.15537 72.5712 7.72114 71.9519 7.31098C68.9084 5.29523 65.2833 3.98203 61.6285 3.75779C60.9036 3.7136 60.0785 3.72127 59.4779 4.18575C58.9873 4.56548 58.7051 5.16169 58.4386 5.70817C58.0003 6.60624 57.5965 7.52195 57.1913 8.43698C57.1287 8.57726 57.0684 8.71674 57.0058 8.85702C57.5779 8.78847 58.1617 8.79114 58.7358 8.82668C59.3911 8.86744 60.0445 8.93575 60.6929 9.03026C63.0143 9.37415 65.2873 10.064 67.4083 11.07C69.4734 12.0505 71.3979 13.3221 73.0912 14.8577C73.3852 14.1388 73.6762 13.4186 73.9607 12.6972L73.9593 12.7001ZM72.6548 15.9184C72.7029 15.8018 72.7504 15.6866 72.7985 15.57C71.8561 14.6969 70.8411 13.9045 69.7634 13.2024C67.841 11.9495 65.7289 10.9938 63.5236 10.3581C62.4271 10.0422 61.3075 9.81168 60.1754 9.66264C59.0579 9.51673 57.9278 9.51085 56.8088 9.38379C56.7824 9.52285 56.7524 9.66203 56.7144 9.79931C56.8481 9.79479 56.9883 9.81463 57.1202 9.82174C57.4529 9.84087 57.7865 9.86575 58.1174 9.8965C58.7726 9.95679 59.4185 10.0608 60.0636 10.1858C62.3732 10.6292 64.6232 11.3459 66.7622 12.3281C68.855 13.291 70.8372 14.4949 72.6504 15.9164L72.6548 15.9184ZM72.1945 17.0234C72.262 16.8605 72.3296 16.6977 72.3986 16.5355C71.3816 15.7243 70.3112 14.9829 69.1942 14.3161C67.206 13.1291 65.073 12.1958 62.8642 11.5016C61.7668 11.1568 60.6498 10.8778 59.5193 10.6672C58.9508 10.5613 58.3782 10.4642 57.8074 10.375C57.5267 10.3317 57.2446 10.2913 56.962 10.2561C56.8342 10.2401 56.7122 10.2269 56.5896 10.1956C56.5311 10.3697 56.4735 10.546 56.415 10.7202C56.2404 11.2483 56.0344 11.7639 55.8386 12.2841C55.7862 12.4255 55.7324 12.5662 55.6807 12.7061C55.7878 12.709 55.8954 12.7227 55.9997 12.7278C56.3324 12.747 56.666 12.7718 56.9969 12.8026C57.6521 12.8629 58.2973 12.9684 58.9431 13.0919C61.252 13.5367 63.5027 14.2519 65.641 15.2357C67.7073 16.1864 69.6665 17.3708 71.46 18.7692C71.4908 18.6943 71.523 18.6202 71.5552 18.546C71.6354 18.3516 71.7157 18.1572 71.7959 17.9628C71.9263 17.6474 72.0574 17.334 72.1952 17.0219L72.1945 17.0234ZM70.6707 20.6889C70.8499 20.2554 71.0291 19.8218 71.2083 19.3882C70.2115 18.5987 69.1635 17.8747 68.0701 17.2223C66.0819 16.0353 63.9489 15.102 61.7401 14.4078C60.6426 14.063 59.5257 13.784 58.3952 13.5734C57.8267 13.4675 57.2541 13.3704 56.6832 13.2812C56.4025 13.2379 56.1205 13.1975 55.8379 13.1623C55.7319 13.1492 55.6287 13.1375 55.5267 13.1156C55.3111 13.6908 55.0961 14.2645 54.8812 14.8381C54.9804 14.8427 55.0799 14.8546 55.1756 14.8593C55.5083 14.8784 55.8419 14.9033 56.1728 14.934C56.828 14.9943 57.4732 15.0998 58.119 15.2233C60.4279 15.6682 62.6786 16.3834 64.8169 17.3671C66.867 18.3105 68.8129 19.4852 70.5951 20.8694C70.6198 20.8078 70.6452 20.7484 70.6692 20.6883L70.6707 20.6889ZM52.4254 67.932C52.9158 66.6683 53.4039 65.4018 53.8913 64.1367C54.5004 62.5558 55.1087 60.9728 55.7149 59.3905C56.4049 57.5941 57.0935 55.7971 57.7821 54.0001C58.5046 52.1137 59.2285 50.228 59.951 48.3416C60.6688 46.4691 61.3926 44.5993 62.1184 42.7287C62.7998 40.9746 63.4805 39.222 64.1619 37.4679C64.7501 35.9557 65.3281 34.4387 65.9288 32.9304C66.3661 31.8291 66.8225 30.7366 67.2729 29.6413C66.3472 28.7902 65.3538 28.0165 64.3006 27.3309C64.1208 27.2148 63.9405 27.1001 63.7573 26.9877L63.5198 26.8966C63.5259 26.8834 63.5311 26.868 63.5357 26.8541C61.8237 25.8328 59.9768 25.0395 58.0607 24.4866C57.4814 24.3189 56.8957 24.1767 56.305 24.057C56.3003 24.0673 56.2971 24.0783 56.2938 24.0892L56.0538 24.0077C55.6089 23.9229 55.1616 23.8512 54.7119 23.7927C53.569 23.644 52.4144 23.6411 51.2712 23.5048C51.2668 23.5027 51.2625 23.5043 51.2581 23.5023C51.1994 23.6692 51.1392 23.8355 51.0768 24.0025C50.607 25.2756 50.1438 26.55 49.6593 27.8163C49.0532 29.3986 48.447 30.9809 47.8423 32.5638C47.1552 34.3615 46.4695 36.1599 45.7824 37.9576C45.0614 39.8446 44.3346 41.729 43.6062 43.6127C42.884 45.4832 42.1617 47.3537 41.4373 49.225C40.7588 50.9804 40.0811 52.7344 39.4012 54.4891C38.8159 56.0027 38.229 57.5156 37.6401 59.0293C37.1836 60.2036 36.7264 61.3793 36.267 62.5523C36.1026 62.973 35.936 63.3946 35.7701 63.8147C35.7062 63.9775 35.6437 64.1409 35.5754 64.3016C35.5558 64.3443 35.5378 64.3875 35.5197 64.4308C35.601 64.397 35.6825 64.3667 35.7631 64.3343C36.0373 64.2289 36.3176 64.1528 36.6093 64.1176C37.1173 64.057 37.6371 64.114 38.1006 64.3442C38.5362 64.5617 38.9231 64.8777 39.2049 65.2754C39.3204 65.4386 39.4406 65.6342 39.5316 65.8431L39.8137 65.9724C39.7666 66.0753 39.7187 66.1796 39.6694 66.2833C39.6776 66.3315 39.6836 66.3805 39.686 66.4296C39.8365 66.3261 40.0066 66.2422 40.1659 66.1623C40.4668 66.0103 40.7859 65.9077 41.1146 65.8307C42.2938 65.555 43.5719 65.7034 44.6416 66.2756C45.2089 66.5783 45.7242 66.971 46.1465 67.458C46.358 67.7026 46.5413 67.9662 46.7069 68.2449C46.7575 68.3285 46.8038 68.4137 46.8479 68.4998C47.0241 67.999 47.2098 67.5009 47.3999 67.0047L47.7583 67.1423C47.5368 67.6952 47.3222 68.2566 47.078 68.8009C47.4205 68.6395 47.8165 68.5632 48.1744 68.5156C49.0436 68.4001 50.0111 68.5396 50.7213 69.0892C51.0519 69.3456 51.3254 69.6684 51.5251 70.0356C51.5398 70.0619 51.5529 70.0875 51.5654 70.1145C51.8423 69.3825 52.139 68.6578 52.4217 67.9285L52.4254 67.932ZM68.7402 25.5249C69.2719 24.1788 69.7999 22.8292 70.3448 21.4892C69.3586 20.7116 68.3253 19.9979 67.2474 19.3544C65.2592 18.1674 63.1262 17.2341 60.9174 16.5399C59.82 16.1951 58.7031 15.9161 57.5725 15.7055C57.004 15.5996 56.4314 15.5025 55.8606 15.4133C55.5799 15.37 55.2978 15.3297 55.0153 15.2944C54.9179 15.2818 54.8213 15.2713 54.7267 15.2528C54.414 16.0822 54.1007 16.9131 53.7822 17.7399C53.5529 18.3372 53.3227 18.9324 53.0904 19.5283C53.1825 19.5332 53.2754 19.5438 53.3645 19.5472C53.6972 19.5664 54.0308 19.5912 54.3617 19.622C55.0169 19.6823 55.6628 19.7863 56.3079 19.9113C58.6168 20.3562 60.8675 21.0714 63.0058 22.0551C65.0405 22.9896 66.97 24.1533 68.7409 25.5234L68.7402 25.5249ZM68.235 26.7978C68.3217 26.5814 68.407 26.3644 68.4937 26.1481C67.5201 25.3817 66.4981 24.6785 65.4335 24.0447C63.4453 22.8576 61.3117 21.9258 59.1029 21.2316C58.0054 20.8868 56.8885 20.6078 55.758 20.3972C55.1894 20.2913 54.6169 20.1942 54.046 20.1051C53.7653 20.0617 53.4833 20.0214 53.2007 19.9861C53.1063 19.9748 53.0169 19.9641 52.9267 19.9476C52.8561 20.1287 52.7849 20.3112 52.7144 20.4923C52.6724 20.5993 52.6311 20.7049 52.5892 20.8119C52.6834 20.8159 52.7778 20.8272 52.8683 20.8314C53.201 20.8505 53.5346 20.8754 53.8655 20.9061C54.5208 20.9664 55.1666 21.0704 55.8118 21.1954C58.1213 21.6388 60.3714 22.3555 62.5097 23.3392C64.5392 24.2731 66.465 25.4334 68.2343 26.7992L68.235 26.7978ZM67.8943 27.6535C67.9249 27.575 67.957 27.4973 67.9883 27.4174C67.0185 26.6545 65.9987 25.954 64.9393 25.3208C62.951 24.1338 60.8174 23.2019 58.6086 22.5077C57.5111 22.1629 56.3942 21.8839 55.2637 21.6733C54.6952 21.5674 54.1226 21.4704 53.5511 21.3826C53.2704 21.3393 52.9883 21.299 52.7057 21.2637C52.6099 21.2517 52.5169 21.2411 52.4252 21.224C52.342 21.4366 52.2573 21.6485 52.1726 21.8604C52.0265 22.2256 51.8962 22.6069 51.7326 22.9676C52.2432 22.9207 52.7613 22.927 53.2716 22.9582C53.9269 22.9989 54.5803 23.0673 55.2281 23.1632C57.5494 23.5071 59.8224 24.197 61.9434 25.203C63.9269 26.1442 65.7799 27.3547 67.4234 28.8087C67.5665 28.419 67.7416 28.037 67.8936 27.6549L67.8943 27.6535ZM50.8748 71.466C50.9868 71.2915 51.1003 71.1177 51.2137 70.9439C51.1783 70.8387 51.1522 70.7289 51.113 70.6398C51.032 70.448 50.9221 70.2767 50.7886 70.1177C50.5233 69.8004 50.1634 69.5536 49.7931 69.407C49.3539 69.2324 48.8685 69.1895 48.4009 69.2436C48.1588 69.2714 47.9166 69.3186 47.6838 69.388C47.4303 69.4638 47.2014 69.5598 46.9387 69.6013C46.8488 69.6152 46.7706 69.5918 46.7105 69.5483C46.6542 69.5936 46.5471 69.5711 46.568 69.4829C46.57 69.4785 46.5712 69.4719 46.5718 69.4669C46.5417 69.4549 46.513 69.4399 46.4854 69.4148C46.4124 69.3529 46.3382 69.2975 46.282 69.2184C46.2213 69.1337 46.1889 69.0335 46.146 68.9409C46.0828 68.8034 46.0138 68.6669 45.937 68.5357C45.7881 68.2825 45.5937 68.0315 45.3936 67.8047C44.6856 66.9982 43.7016 66.4564 42.6357 66.3182C42.0915 66.2483 41.5426 66.2741 41.007 66.3914C40.7456 66.4494 40.4841 66.5233 40.2334 66.6165C40.0154 66.6962 39.8131 66.8079 39.5918 66.8754C39.448 67.0301 39.1507 66.9649 39.0531 66.7743C38.96 66.5894 38.9498 66.3713 38.8844 66.1919C38.8189 66.009 38.7343 65.8404 38.6258 65.6893C38.4115 65.3847 38.1204 65.1197 37.796 64.9621C37.4195 64.7789 37.0241 64.7025 36.6058 64.7384C36.3576 64.7598 36.1081 64.8037 35.8638 64.8518C35.618 64.8991 35.3784 64.9796 35.1291 64.988C35.1255 64.9882 35.1204 64.9876 35.1168 64.9877C35.083 65.7831 35.0564 66.5783 35.0066 67.3735C34.9441 68.3478 34.8816 69.3222 34.8082 70.2968C34.6416 72.5109 34.4959 74.7258 34.314 76.9382C34.121 79.295 33.9171 81.6485 33.6988 84.0025C33.5951 85.1287 33.4893 86.2556 33.3871 87.3825C33.3867 87.3912 33.3862 87.3999 33.3843 87.4079C33.4996 87.4358 33.6064 87.5132 33.7038 87.5721C33.8686 87.6743 34.0244 87.7884 34.1898 87.8892C34.5044 88.0796 34.8171 88.2549 35.1574 88.3931C35.4698 88.5186 35.8183 88.6428 36.1313 88.7009C36.2784 88.7292 36.4622 88.7512 36.5909 88.7497C36.6769 88.7483 36.7602 88.7295 36.8474 88.7215C36.9643 88.711 37.0743 88.7348 37.1523 88.751C37.1603 88.7529 37.1683 88.7548 37.1763 88.7567C39.3283 86.0211 41.5056 83.3042 43.6635 80.5714C44.9203 78.9779 46.1832 77.3908 47.4608 75.814C48.1094 75.0159 48.7796 74.2365 49.4468 73.4523C49.5122 73.3755 49.5769 73.3003 49.6423 73.2236C49.6942 73.1531 49.7461 73.0826 49.7957 73.0093C50.1544 72.4944 50.5354 71.9969 50.8726 71.4668L50.8748 71.466ZM36.1986 90.005C36.3061 89.8676 36.4157 89.7293 36.5232 89.5918C36.379 89.5844 36.2349 89.5611 36.1046 89.5351C35.6953 89.4542 35.3095 89.3183 34.9378 89.1283C34.5602 88.9356 34.1801 88.7134 33.8555 88.4401C33.6909 88.3024 33.5258 88.1467 33.3865 87.9851C33.3729 87.9682 33.3572 87.9521 33.3428 87.933C33.2679 88.7985 33.196 89.6654 33.0942 90.5275C32.9835 91.4673 32.8874 92.4102 32.7346 93.3449C32.6661 93.7581 32.6071 94.1738 32.5285 94.5859C32.4991 94.7432 32.4632 94.9028 32.4281 95.061C32.6203 94.7116 32.8346 94.3759 33.0783 94.0537C33.4259 93.5942 33.7764 93.136 34.1284 92.6785C34.8149 91.7822 35.506 90.8914 36.2014 90.0028L36.1986 90.005Z" fill="#3b1d0f" fill-rule="nonzero" opacity="1" stroke="none"/>
<path d="M74.3794 11.5625C74.2594 11.9485 74.108 12.3255 73.9608 12.7008C73.6757 13.4237 73.3846 14.1439 73.0914 14.8613C71.3987 13.3243 69.4735 12.0541 67.4084 11.0736C65.2881 10.0661 63.0144 9.37776 60.6931 9.03388C60.0438 8.93722 59.3905 8.86891 58.736 8.8303C58.1618 8.79475 57.578 8.79209 57.006 8.86064C57.0685 8.72036 57.1289 8.58087 57.1914 8.44059C57.5959 7.52703 58.0012 6.612 58.4387 5.71178C58.7052 5.1653 58.9874 4.5691 59.478 4.18936C60.0786 3.72488 60.9044 3.71574 61.6286 3.7614C65.2834 3.98564 68.9071 5.29817 71.952 7.31459C72.5713 7.72476 73.1864 8.15966 73.7608 8.62922C74.0063 8.83069 74.2457 9.04177 74.4506 9.28512C74.5313 9.38077 74.6336 9.51836 74.6752 9.59435C74.703 9.64622 74.7294 9.69741 74.7486 9.75246C74.7564 9.77028 74.7621 9.78889 74.7693 9.80818L74.7693 9.80818C74.7693 9.80818 74.7832 9.8786 74.7843 9.88797C74.7852 9.89372 74.7889 9.93989 74.789 9.9435C74.7875 9.96236 74.7874 9.9819 74.7844 10.0001C74.7748 10.0793 74.75 10.1568 74.7309 10.2334C74.6806 10.4362 74.6296 10.6404 74.5772 10.844C74.5159 11.0863 74.4532 11.3278 74.3781 11.5655L74.3794 11.5625Z" fill="#ffd459" fill-rule="nonzero" opacity="1" stroke="none"/>
<path d="M72.7978 15.5714C72.7497 15.6881 72.7022 15.8033 72.6541 15.9199C70.841 14.4984 68.8587 13.2945 66.766 12.3316C64.6291 11.3485 62.3784 10.6334 60.0674 10.1893C59.4222 10.0643 58.7749 9.95961 58.1211 9.89999C57.7902 9.86924 57.4566 9.84436 57.124 9.82523C56.9921 9.81812 56.8518 9.79828 56.7181 9.8028C56.7562 9.66552 56.784 9.52714 56.8126 9.38728C57.9301 9.51367 59.0595 9.52101 60.1792 9.66613C61.3104 9.81303 62.4308 10.0456 63.5273 10.3615C65.7312 10.9966 67.8454 11.9515 69.7671 13.2059C70.8434 13.9073 71.8583 14.6997 72.8022 15.5735L72.7978 15.5714Z" fill="#c2c2c2" fill-rule="nonzero" opacity="1" stroke="none"/>
<path d="M72.3986 16.5355C72.3311 16.6983 72.2635 16.8612 72.1945 17.0234C72.0568 17.3355 71.9256 17.6488 71.7952 17.9643C71.715 18.1587 71.6348 18.3531 71.5545 18.5475C71.5223 18.6217 71.4916 18.6965 71.4594 18.7706C69.6658 17.3723 67.7073 16.1864 65.6404 15.2372C63.5035 14.2541 61.2528 13.5389 58.9425 13.0934C58.2966 12.9698 57.65 12.8637 56.9962 12.8041C56.6653 12.7733 56.3317 12.7484 55.999 12.7293C55.8954 12.7227 55.7872 12.7104 55.68 12.7075C55.7324 12.5662 55.7862 12.4255 55.8379 12.2855C56.0337 11.7653 56.2398 11.2498 56.4143 10.7216C56.4713 10.5468 56.5305 10.3712 56.589 10.1971C56.7115 10.2284 56.8335 10.2416 56.9614 10.2575C57.244 10.2928 57.5245 10.3325 57.8067 10.3765C58.3775 10.4657 58.9501 10.5628 59.5187 10.6687C60.6492 10.8792 61.7661 11.1583 62.8635 11.5031C65.0723 12.1972 67.2053 13.1305 69.1935 14.3176C70.3106 14.9843 71.3809 15.7257 72.3979 16.5369L72.3986 16.5355Z" fill="#c2c2c2" fill-rule="nonzero" opacity="1" stroke="none"/>
<path d="M71.2083 19.3882C71.0291 19.8218 70.8499 20.2554 70.6707 20.6889C70.646 20.7505 70.6206 20.81 70.5966 20.8701C68.8129 19.4852 66.8685 18.3111 64.8184 17.3678C62.6815 16.3847 60.4308 15.6695 58.1205 15.224C57.4747 15.1005 56.828 14.9943 56.1742 14.9347C55.8433 14.904 55.5097 14.8791 55.1771 14.86C55.0814 14.8552 54.9819 14.8434 54.8827 14.8388C55.0976 14.2651 55.3132 13.69 55.5282 13.1163C55.6302 13.1382 55.7333 13.1499 55.8394 13.1629C56.122 13.1982 56.4025 13.2379 56.6847 13.2819C57.2555 13.3711 57.8288 13.4667 58.3967 13.5741C59.5272 13.7846 60.6441 14.0637 61.7416 14.4085C63.9503 15.1027 66.0833 16.036 68.0715 17.223C69.1635 17.8747 70.2115 18.5987 71.2098 19.3889L71.2083 19.3882Z" fill="#c2c2c2" fill-rule="nonzero" opacity="1" stroke="none"/>
<path d="M53.8913 64.1367C53.4039 65.4018 52.9165 66.6668 52.4254 67.932C52.1427 68.6613 51.846 69.386 51.5692 70.118C51.556 70.0924 51.5435 70.0654 51.5289 70.0391C51.3291 69.6719 51.0556 69.3491 50.725 69.0927C50.0149 68.5431 49.0473 68.4036 48.1781 68.5191C47.8196 68.5682 47.4221 68.6438 47.0818 68.8044C47.3259 68.2601 47.5406 67.6987 47.762 67.1458C48.235 65.9666 48.7124 64.7894 49.1927 63.6136C49.7918 62.1437 50.3872 60.6703 50.9804 59.1977C51.6512 57.5366 52.3213 55.8769 52.9935 54.2165C53.7071 52.454 54.4214 50.6902 55.1351 48.9278C55.8541 47.1536 56.5731 45.3794 57.2915 43.6067C57.9804 41.9059 58.6671 40.2023 59.3516 38.4994C59.9627 36.9763 60.5731 35.4547 61.1812 33.9302C61.684 32.6704 62.1861 31.4121 62.6676 30.1444C63.0122 29.2336 63.3269 28.3144 63.6327 27.3912C63.6775 27.2587 63.714 27.1208 63.7594 26.9869C63.9426 27.0993 64.1237 27.2125 64.3027 27.3302C65.3553 28.0172 66.3508 28.79 67.2751 29.6405C66.8246 30.7358 66.3682 31.8283 65.931 32.9296C65.3303 34.4379 64.7523 35.9549 64.164 37.4671C63.4812 39.2205 62.7998 40.9746 62.1206 42.7279C61.3954 44.597 60.671 46.4683 59.9531 48.3408C59.2306 50.2272 58.5082 52.1136 57.7843 53.9993C57.0957 55.7963 56.4071 57.5934 55.717 59.3897C55.1094 60.9713 54.5017 62.5529 53.8934 64.1359L53.8913 64.1367Z" fill="#40637f" fill-rule="nonzero" opacity="1" stroke="none"/>
<path d="M70.3448 21.4892C69.7992 22.8307 69.2734 24.1795 68.7402 25.5249C66.9693 24.1547 65.0391 22.9925 63.0052 22.0566C60.8683 21.0735 58.6176 20.3583 56.3073 19.9128C55.6621 19.7878 55.0148 19.6831 54.361 19.6235C54.0301 19.5927 53.6965 19.5678 53.3638 19.5487C53.274 19.5431 53.1818 19.5346 53.0898 19.5298C53.3221 18.9338 53.5522 18.3387 53.7815 17.7413C54.1007 16.9131 54.4134 16.0837 54.726 15.2543C54.8207 15.2728 54.9172 15.2832 55.0146 15.2959C55.2972 15.3311 55.5777 15.3708 55.8599 15.4148C56.4308 15.504 57.0033 15.6011 57.5719 15.707C58.7024 15.9176 59.8193 16.1966 60.9168 16.5414C63.1256 17.2356 65.2585 18.1689 67.2467 19.3559C68.3246 19.9994 69.3594 20.7138 70.3441 21.4906L70.3448 21.4892Z" fill="#c2c2c2" fill-rule="nonzero" opacity="1" stroke="none"/>
<path d="M68.4929 26.146C68.4062 26.3623 68.3209 26.5793 68.2342 26.7956C66.4664 25.4304 64.5391 24.2695 62.5095 23.3356C60.3727 22.3526 58.122 21.6374 55.8116 21.1918C55.1665 21.0668 54.5192 20.9621 53.8654 20.9025C53.5345 20.8718 53.2009 20.8469 52.8682 20.8278C52.7762 20.8229 52.6832 20.8123 52.5891 20.8083C52.631 20.7013 52.673 20.5942 52.7142 20.4887C52.7848 20.3076 52.856 20.1251 52.9266 19.944C53.0168 19.9605 53.1076 19.9719 53.2006 19.9825C53.4832 20.0178 53.7637 20.0575 54.0459 20.1014C54.6167 20.1906 55.19 20.2862 55.7579 20.3936C56.8884 20.6042 58.0053 20.8832 59.1027 21.228C61.3115 21.9222 63.4445 22.8555 65.4334 24.0411C66.4973 24.6763 67.5193 25.3796 68.4936 26.1445L68.4929 26.146Z" fill="#c2c2c2" fill-rule="nonzero" opacity="1" stroke="none"/>
<path d="M67.9876 27.4188C67.957 27.4973 67.9249 27.575 67.8936 27.6549C67.7416 28.037 67.5665 28.419 67.4234 28.8087C65.7806 27.3532 63.9269 26.1442 61.9434 25.203C59.8231 24.1955 57.5494 23.5071 55.2281 23.1632C54.5788 23.0666 53.9255 22.9983 53.2716 22.9582C52.7613 22.927 52.2432 22.9207 51.7326 22.9676C51.8977 22.6076 52.028 22.2263 52.1726 21.8604C52.2573 21.6485 52.342 21.4366 52.4252 21.224C52.5169 21.2411 52.6099 21.2517 52.7057 21.2637C52.9883 21.299 53.2689 21.3387 53.5511 21.3826C54.1219 21.4718 54.6952 21.5674 55.2637 21.6733C56.3942 21.8839 57.5111 22.1629 58.6086 22.5077C60.8174 23.2019 62.9504 24.1352 64.9393 25.3208C65.9987 25.954 67.017 26.6538 67.9883 27.4174L67.9876 27.4188Z" fill="#c2c2c2" fill-rule="nonzero" opacity="1" stroke="none"/>
<path d="M51.2131 70.9453C51.0996 71.1192 50.9853 71.2908 50.8741 71.4675C50.5369 71.9976 50.1559 72.4951 49.7971 73.01C49.7467 73.0811 49.6963 73.1523 49.6438 73.2242C49.5791 73.2995 49.5137 73.3762 49.4483 73.4529C48.7818 74.2358 48.1109 75.0166 47.4623 75.8147C46.1832 77.3908 44.9218 78.9786 43.665 80.572C41.5085 83.3056 39.3305 86.0203 37.1778 88.7573C37.1704 88.754 37.1617 88.7535 37.1537 88.7516C37.0772 88.7362 36.9657 88.7117 36.8489 88.7222C36.7631 88.7309 36.6798 88.7496 36.5923 88.7504C36.463 88.7533 36.2784 88.7292 36.1328 88.7016C35.8183 88.6428 35.4706 88.5207 35.1589 88.3938C34.8171 88.2549 34.5044 88.0796 34.1913 87.8898C34.0252 87.7906 33.8694 87.6765 33.7053 87.5728C33.6085 87.5124 33.501 87.4365 33.3858 87.4086C33.3862 87.3999 33.3867 87.3912 33.3886 87.3832C33.4908 86.2563 33.5959 85.1308 33.7002 84.0031C33.9171 81.6485 34.1225 79.2956 34.3154 76.9389C34.4959 74.7258 34.643 72.5116 34.8097 70.2975C34.883 69.3228 34.9434 68.3493 35.0081 67.3742C35.0593 66.5796 35.0844 65.7838 35.1183 64.9884C35.1234 64.9889 35.127 64.9888 35.1306 64.9887C35.3813 64.9809 35.6195 64.8998 35.8653 64.8524C36.1096 64.8044 36.3591 64.7605 36.6072 64.7391C37.0262 64.7017 37.4224 64.7802 37.7975 64.9628C38.1218 65.1204 38.4129 65.3854 38.6272 65.6899C38.7351 65.8425 38.8182 66.0104 38.8858 66.1926C38.9512 66.372 38.9608 66.5915 39.0546 66.775C39.1515 66.967 39.4495 67.0307 39.5933 66.8761C39.8138 66.8101 40.0154 66.6962 40.2348 66.6171C40.4864 66.5262 40.7471 66.4501 41.0085 66.392C41.5441 66.2748 42.0937 66.2475 42.6372 66.3188C43.703 66.4571 44.6871 66.9989 45.3951 67.8053C45.5952 68.0322 45.7881 68.2825 45.9385 68.5363C46.0152 68.6676 46.0849 68.8027 46.1475 68.9416C46.1897 69.0356 46.2227 69.1344 46.2835 69.2191C46.3382 69.2975 46.4139 69.3536 46.4869 69.4155C46.5137 69.4385 46.5432 69.4555 46.5733 69.4675C46.5712 69.4719 46.57 69.4785 46.5695 69.4836C46.5486 69.5718 46.6557 69.5942 46.712 69.5489C46.7714 69.5939 46.8488 69.6152 46.9402 69.602C47.2036 69.5627 47.4333 69.4652 47.6853 69.3887C47.9187 69.3178 48.1609 69.2706 48.4023 69.2443C48.8693 69.1916 49.3547 69.2345 49.7946 69.4077C50.1648 69.5543 50.5247 69.8011 50.7901 70.1184C50.925 70.278 51.0335 70.4487 51.1145 70.6405C51.1522 70.7289 51.1791 70.8409 51.2152 70.9445L51.2131 70.9453Z" fill="#fffad5" fill-rule="nonzero" opacity="1" stroke="none"/>
<path d="M62.667 30.1459C62.1869 31.4143 61.6833 32.6719 61.1805 33.9317C60.5731 35.4547 59.962 36.9778 59.351 38.5009C58.6679 40.2044 57.9804 41.9059 57.2908 43.6082C56.5718 45.3824 55.8527 47.1565 55.1344 48.9292C54.4208 50.6916 53.705 52.4548 52.9928 54.2179C52.3206 55.8784 51.6505 57.538 50.9797 59.1992C50.3865 60.6718 49.7918 62.1437 49.192 63.6151C48.7117 64.7909 48.2343 65.9681 47.7614 67.1473L47.403 67.0097C47.4986 66.7583 47.5951 66.5091 47.6922 66.2584C48.181 64.9904 48.6733 63.7223 49.1687 62.4556C49.7651 60.9294 50.3777 59.4069 50.9881 57.8853C51.6671 56.1906 52.3461 54.4959 53.0273 52.8004C53.7438 51.0162 54.4603 49.232 55.1768 47.4478C55.8861 45.6833 56.5945 43.9168 57.3023 42.1517C57.972 40.4812 58.6461 38.8127 59.3173 37.1428C59.9079 35.6761 60.4955 34.208 61.0809 32.7408C61.5516 31.5588 62.0311 30.3808 62.5106 29.2028C62.8266 28.4283 63.223 27.6799 63.5234 26.8965L63.7609 26.9875C63.7155 27.1214 63.6789 27.2594 63.6342 27.3918C63.3284 28.3151 63.0137 29.2343 62.6691 30.1451L62.667 30.1459Z" fill="#3b1d0f" fill-rule="nonzero" opacity="1" stroke="none"/>
<path d="M63.5213 26.8973C63.2215 27.6792 62.8244 28.4291 62.5085 29.2036C62.029 30.3816 61.5509 31.5602 61.0788 32.7416C60.4926 34.2103 59.9042 35.6762 59.3152 37.1436C58.644 38.8135 57.9698 40.482 57.3001 42.1525C56.5924 43.9176 55.8831 45.682 55.1747 47.4486C54.4582 49.2328 53.7417 51.017 53.0252 52.8012C52.3447 54.4952 51.6656 56.1899 50.9859 57.8861C50.377 59.4084 49.7637 60.9287 49.1665 62.4564C48.6712 63.7231 48.1795 64.9898 47.6901 66.2592C47.5929 66.5099 47.4965 66.7591 47.4008 67.0105C47.2107 67.5066 47.025 68.0048 46.8489 68.5055C46.8047 68.4195 46.7563 68.3351 46.7079 68.2506C46.5422 67.9719 46.3589 67.7083 46.1474 67.4638C45.7251 66.9767 45.2091 66.5855 44.6425 66.2813C43.5728 65.7092 42.2947 65.5608 41.1155 65.8365C40.7868 65.9134 40.4677 66.0161 40.1668 66.1681C40.0096 66.2472 39.8396 66.331 39.6869 66.4353C39.6838 66.3877 39.6785 66.3372 39.6703 66.289C39.7196 66.1854 39.7689 66.0817 39.8153 65.9767C40.069 65.4155 40.2888 64.8351 40.5161 64.2617C40.9846 63.0805 41.4576 61.9013 41.9313 60.7243C42.5212 59.259 43.1045 57.7926 43.6878 56.3261C44.3484 54.6638 45.0105 53.0023 45.6726 51.3407C46.3767 49.5757 47.0802 47.8122 47.7843 46.0472C48.4932 44.272 49.2006 42.496 49.9095 40.7208C50.5849 39.0262 51.2595 37.3295 51.9305 35.6329C52.5335 34.1079 53.1351 32.5822 53.736 31.058C54.2322 29.797 54.7299 28.5366 55.2049 27.2677C55.5479 26.3526 55.857 25.4379 56.1627 24.5111C56.2079 24.3735 56.2459 24.2327 56.2926 24.0958C56.2973 24.0855 56.3005 24.0746 56.3038 24.0636C56.8945 24.1832 57.4795 24.3269 58.0595 24.4932C59.9763 25.0446 61.8224 25.8393 63.5345 26.8606C63.5284 26.8739 63.5232 26.8892 63.5186 26.9031L63.5213 26.8973Z" fill="#97e4ff" fill-rule="nonzero" opacity="1" stroke="none"/>
<path d="M36.5225 89.5933C36.415 89.7308 36.3061 89.8676 36.1979 90.0065C35.5039 90.8959 34.8122 91.788 34.1249 92.6822C33.7729 93.1397 33.4239 93.5986 33.0748 94.0575C32.8311 94.3796 32.6168 94.7153 32.4246 95.0647C32.4604 94.9051 32.4956 94.7469 32.525 94.5897C32.6036 94.1776 32.6626 93.7618 32.7311 93.3486C32.8854 92.4146 32.9815 91.4717 33.0907 90.5312C33.1925 89.6691 33.263 88.8016 33.3393 87.9367C33.3544 87.9543 33.3694 87.9719 33.383 87.9888C33.5223 88.1505 33.6889 88.3069 33.852 88.4438C34.1781 88.7178 34.5567 88.9394 34.9343 89.132C35.3045 89.3213 35.6918 89.4579 36.1011 89.5389C36.2329 89.5655 36.3761 89.5867 36.5197 89.5956L36.5225 89.5933Z" fill="#3b1d0f" fill-rule="nonzero" opacity="1" stroke="none"/>
<path d="M55.2084 27.264C54.7334 28.5329 54.2357 29.7932 53.7395 31.0542C53.1394 32.5806 52.537 34.1041 51.934 35.6292C51.263 37.3257 50.5884 39.0225 49.9129 40.717C49.2056 42.493 48.4967 44.2682 47.7878 46.0435C47.0837 47.8085 46.3802 49.572 45.6761 51.337C45.014 52.9985 44.3519 54.6601 43.6913 56.3223C43.108 57.7888 42.524 59.2568 41.9348 60.7206C41.4604 61.8991 40.9874 63.0783 40.5196 64.258C40.293 64.8299 40.0725 65.4117 39.8188 65.973L39.5366 65.8436C39.8196 65.013 40.1346 64.19 40.4468 63.3693C40.9285 62.1052 41.4124 60.8439 41.8985 59.5818C42.4869 58.0536 43.0922 56.5314 43.6924 55.0087C44.3639 53.3034 45.0368 51.5988 45.7112 49.8948C46.4142 48.1169 47.1171 46.3389 47.8194 44.5624C48.5177 42.7947 49.2153 41.0285 49.915 39.2615C50.5727 37.5979 51.234 35.9342 51.8916 34.2707C52.4754 32.7955 53.0591 31.3203 53.6406 29.8423C54.1062 28.6598 54.5785 27.482 55.0529 26.3035C55.3639 25.532 55.756 24.7852 56.0545 24.0062L56.2945 24.0878C56.2478 24.2246 56.2098 24.3655 56.1646 24.503C55.8589 25.4299 55.5498 26.3446 55.2068 27.2597L55.2084 27.264Z" fill="#3b1d0f" fill-rule="nonzero" opacity="1" stroke="none"/>
<path d="M56.0553 24.0083C55.7568 24.7874 55.3647 25.5342 55.0537 26.3057C54.5778 27.4835 54.107 28.6619 53.6414 29.8445C53.0606 31.321 52.4769 32.7962 51.8924 34.2728C51.2333 35.9357 50.572 37.5994 49.9158 39.2637C49.2176 41.0314 48.52 42.7976 47.8202 44.5646C47.1173 46.3425 46.415 48.119 45.712 49.897C45.0391 51.6016 44.3662 53.3062 43.6932 55.0108C43.093 56.5336 42.4877 58.0558 41.8993 59.5839C41.4132 60.846 40.9286 62.1088 40.4476 63.3714C40.1347 64.1936 39.8189 65.0145 39.5368 65.8472C39.4451 65.6398 39.3256 65.4428 39.2101 65.2796C38.9283 64.8819 38.5406 64.5637 38.1058 64.3484C37.6438 64.1188 37.1246 64.0604 36.6145 64.1218C36.3228 64.157 36.041 64.2323 35.7683 64.3385C35.6862 64.3702 35.6062 64.4011 35.5249 64.435C35.5444 64.3924 35.564 64.3498 35.5806 64.3058C35.6489 64.1451 35.7114 63.9816 35.7753 63.8189C35.9412 63.3988 36.1078 62.9772 36.2722 62.5564C36.7316 61.3835 37.1888 60.2077 37.6453 59.0334C38.2336 57.5212 38.8189 56.0077 39.4064 54.4933C40.0863 52.7385 40.764 50.9846 41.4425 49.2291C42.1647 47.3587 42.887 45.4882 43.6114 43.6169C44.3398 41.7332 45.0666 39.8488 45.7876 37.9617C46.4733 36.1634 47.1604 34.3657 47.8475 32.568C48.4522 30.9851 49.0584 29.4028 49.6645 27.8205C50.1505 26.5548 50.6122 25.2798 51.082 24.0067C51.1437 23.8411 51.2031 23.6727 51.2633 23.5065C51.2677 23.5085 51.2713 23.5084 51.2764 23.5089C52.4188 23.6431 53.5742 23.6482 54.7171 23.7968C55.1668 23.8554 55.6141 23.9271 56.059 24.0118L56.0553 24.0083Z" fill="#40637f" fill-rule="nonzero" opacity="1" stroke="none"/>
</g>
</g>
</svg>
